<svg width="18" height="183" viewBox="0 0 18 183" fill="none" xmlns="http://www.w3.org/2000/svg">
<path d="M13 182.2V180.803H4.52734V182.2H13ZM2.97168 181.506C2.97168 181.283 2.89258 181.096 2.73438 180.943C2.58203 180.785 2.39453 180.706 2.17188 180.706C1.95508 180.706 1.76758 180.785 1.60938 180.943C1.45703 181.096 1.38086 181.283 1.38086 181.506C1.38086 181.723 1.45703 181.907 1.60938 182.06C1.76758 182.218 1.95508 182.297 2.17188 182.297C2.39453 182.297 2.58203 182.218 2.73438 182.06C2.89258 181.907 2.97168 181.723 2.97168 181.506ZM10.4863 172.813C9.8125 172.813 9.24707 173.057 8.79004 173.543C8.23926 174.123 7.96387 174.964 7.96387 176.065C7.96387 176.722 7.84375 177.193 7.60352 177.48C7.50977 177.586 7.39844 177.665 7.26953 177.718C7.16992 177.759 7.06445 177.779 6.95312 177.779C6.83594 177.779 6.72754 177.759 6.62793 177.718C6.50488 177.665 6.39648 177.586 6.30273 177.48C6.05664 177.193 5.93359 176.722 5.93359 176.065C5.93359 175.104 6.18262 174.548 6.68066 174.396L6.5752 172.989C5.99512 173.083 5.52637 173.361 5.16895 173.824C4.74121 174.375 4.52734 175.122 4.52734 176.065C4.52734 177.12 4.79102 177.926 5.31836 178.482C5.75781 178.945 6.30273 179.177 6.95312 179.177C7.59766 179.177 8.13965 178.945 8.5791 178.482C9.10645 177.926 9.37012 177.12 9.37012 176.065C9.37012 174.835 9.74219 174.22 10.4863 174.22C11.2246 174.22 11.5938 174.835 11.5938 176.065C11.5938 177.138 11.3037 177.744 10.7236 177.885L10.8379 179.291C11.4473 179.203 11.9424 178.916 12.3232 178.43C12.7744 177.855 13 177.067 13 176.065C13 174.964 12.7246 174.123 12.1738 173.543C11.7168 173.057 11.1543 172.813 10.4863 172.813ZM8.76367 169.992C7.84961 169.992 7.14941 169.775 6.66309 169.342C6.17676 168.902 5.93359 168.272 5.93359 167.452C5.93359 166.632 6.17676 166.005 6.66309 165.571C7.14941 165.132 7.84668 164.912 8.75488 164.912H8.77246C9.68066 164.912 10.3779 165.132 10.8643 165.571C11.3506 166.005 11.5938 166.632 11.5938 167.452C11.5938 168.272 11.3506 168.902 10.8643 169.342C10.3779 169.775 9.67773 169.992 8.76367 169.992ZM12.9209 168.322C12.9736 168.047 13 167.757 13 167.452C13 167.153 12.9736 166.866 12.9209 166.591L12.9033 166.494C12.7568 165.844 12.4434 165.316 11.9629 164.912H13V163.506H4.53613V164.912H5.56445C5.07813 165.322 4.76465 165.858 4.62402 166.521L4.60645 166.6C4.55371 166.875 4.52734 167.159 4.52734 167.452C4.52734 167.745 4.55078 168.026 4.59766 168.296L4.62402 168.384C4.81152 169.327 5.27148 170.065 6.00391 170.599C6.73633 171.132 7.65625 171.398 8.76367 171.398C9.86523 171.398 10.7822 171.135 11.5146 170.607C12.2471 170.08 12.71 169.348 12.9033 168.41L12.9209 168.322ZM8.76367 160.693C7.84961 160.693 7.14941 160.477 6.66309 160.043C6.17676 159.604 5.93359 158.974 5.93359 158.153C5.93359 157.333 6.17676 156.706 6.66309 156.272C7.14941 155.833 7.84668 155.613 8.75488 155.613H8.77246C9.68066 155.613 10.3779 155.833 10.8643 156.272C11.3506 156.706 11.5938 157.333 11.5938 158.153C11.5938 158.974 11.3506 159.604 10.8643 160.043C10.3779 160.477 9.67773 160.693 8.76367 160.693ZM12.9209 159.023C12.9736 158.748 13 158.458 13 158.153C13 157.854 12.9736 157.567 12.9209 157.292L12.9033 157.195C12.7568 156.545 12.4434 156.018 11.9629 155.613H13L13 154.207H0.361328L0.361328 155.613H5.56445C5.07813 156.023 4.76465 156.56 4.62402 157.222L4.60645 157.301C4.55371 157.576 4.52734 157.86 4.52734 158.153C4.52734 158.446 4.55078 158.728 4.59766 158.997L4.62402 159.085C4.81152 160.028 5.27148 160.767 6.00391 161.3C6.73633 161.833 7.65625 162.1 8.76367 162.1C9.86523 162.1 10.7822 161.836 11.5146 161.309C12.2471 160.781 12.71 160.049 12.9033 159.111L12.9209 159.023ZM8.76367 151.395C7.84961 151.395 7.14941 151.178 6.66309 150.744C6.17676 150.305 5.93359 149.675 5.93359 148.854C5.93359 148.034 6.17676 147.404 6.66309 146.965C7.14941 146.531 7.84961 146.314 8.76367 146.314C9.67773 146.314 10.3779 146.531 10.8643 146.965C11.3506 147.404 11.5938 148.034 11.5938 148.854C11.5938 149.675 11.3506 150.305 10.8643 150.744C10.3779 151.178 9.67773 151.395 8.76367 151.395ZM8.76367 144.908C7.48047 144.908 6.45215 145.266 5.67871 145.98C4.91113 146.695 4.52734 147.653 4.52734 148.854C4.52734 150.056 4.91113 151.014 5.67871 151.729C6.45215 152.443 7.48047 152.801 8.76367 152.801C10.0527 152.801 11.0811 152.443 11.8486 151.729C12.6162 151.014 13 150.056 13 148.854C13 147.653 12.6162 146.695 11.8486 145.98C11.0811 145.266 10.0527 144.908 8.76367 144.908ZM8.55273 142.096C7.75 142.061 7.12598 141.844 6.68066 141.445C6.23535 141.047 5.99219 140.49 5.95117 139.775H4.54492C4.55664 139.998 4.58008 140.212 4.61523 140.417L4.63281 140.514C4.78516 141.164 5.09863 141.691 5.57324 142.096H4.54492V143.502H13V142.096H8.55273ZM8.76367 138.229C7.84961 138.229 7.14941 138.012 6.66309 137.578C6.17676 137.139 5.93359 136.509 5.93359 135.688C5.93359 134.868 6.17676 134.241 6.66309 133.808C7.14941 133.368 7.84668 133.148 8.75488 133.148H8.77246C9.68066 133.148 10.3779 133.368 10.8643 133.808C11.3506 134.241 11.5938 134.868 11.5938 135.688C11.5938 136.509 11.3506 137.139 10.8643 137.578C10.3779 138.012 9.67773 138.229 8.76367 138.229ZM12.9209 136.559C12.9736 136.283 13 135.993 13 135.688C13 135.39 12.9736 135.103 12.9209 134.827L12.9033 134.73C12.7568 134.08 12.4434 133.553 11.9629 133.148H13V131.742H4.53613V133.148H5.56445C5.07813 133.559 4.76465 134.095 4.62402 134.757L4.60645 134.836C4.55371 135.111 4.52734 135.396 4.52734 135.688C4.52734 135.981 4.55078 136.263 4.59766 136.532L4.62402 136.62C4.81152 137.563 5.27148 138.302 6.00391 138.835C6.73633 139.368 7.65625 139.635 8.76367 139.635C9.86523 139.635 10.7822 139.371 11.5146 138.844C12.2471 138.316 12.71 137.584 12.9033 136.646L12.9209 136.559ZM13 129.545C13 129.762 12.9209 129.946 12.7627 130.099C12.6104 130.257 12.4258 130.336 12.209 130.336C11.9863 130.336 11.7988 130.257 11.6465 130.099C11.4883 129.946 11.4092 129.762 11.4092 129.545C11.4092 129.322 11.4883 129.135 11.6465 128.982C11.7988 128.824 11.9863 128.745 12.209 128.745C12.4258 128.745 12.6104 128.824 12.7627 128.982C12.9209 129.135 13 129.322 13 129.545ZM8.03418 125.862C7.93457 125.851 7.84668 125.836 7.77051 125.818C7.25488 125.695 6.84473 125.473 6.54004 125.15C6.13574 124.723 5.93359 124.134 5.93359 123.384C5.93359 122.054 6.5459 121.242 7.77051 120.949L7.83203 120.932C7.89063 120.92 7.95801 120.914 8.03418 120.914V125.862ZM8.68457 119.438C8.40332 119.443 8.125 119.467 7.84961 119.508C6.8125 119.672 5.99805 120.097 5.40625 120.782C4.82031 121.468 4.52734 122.335 4.52734 123.384C4.52734 124.585 4.91113 125.543 5.67871 126.258C6.45215 126.973 7.48047 127.33 8.76367 127.33H8.83398C10.1055 127.312 11.1162 126.94 11.8662 126.214C12.6221 125.481 13 124.509 13 123.296C13 122.487 12.8359 121.764 12.5078 121.125C12.1797 120.486 11.7227 120 11.1367 119.666L10.5215 120.932C10.8613 121.148 11.125 121.462 11.3125 121.872C11.5 122.288 11.5938 122.763 11.5938 123.296C11.5938 124.104 11.377 124.731 10.9434 125.177C10.6094 125.517 10.1641 125.742 9.60742 125.854C9.54297 125.865 9.45508 125.877 9.34375 125.889V119.438H8.68457ZM13 117.24C13 117.457 12.9209 117.642 12.7627 117.794C12.6104 117.952 12.4258 118.031 12.209 118.031C11.9863 118.031 11.7988 117.952 11.6465 117.794C11.4883 117.642 11.4092 117.457 11.4092 117.24C11.4092 117.018 11.4883 116.83 11.6465 116.678C11.7988 116.52 11.9863 116.44 12.209 116.44C12.4258 116.44 12.6104 116.52 12.7627 116.678C12.9209 116.83 13 117.018 13 117.24ZM5.93359 111.079C5.93359 110.259 6.17676 109.629 6.66309 109.189C7.14941 108.756 7.84961 108.539 8.76367 108.539C9.67773 108.539 10.3779 108.756 10.8643 109.189C11.3506 109.629 11.5938 110.259 11.5938 111.079C11.5938 111.899 11.3506 112.526 10.8643 112.96C10.3779 113.399 9.68066 113.619 8.77246 113.619H8.75488C7.84668 113.619 7.14941 113.399 6.66309 112.96C6.17676 112.526 5.93359 111.899 5.93359 111.079ZM11.9629 113.619C12.4434 113.215 12.7568 112.685 12.9033 112.028L12.9209 111.94C12.9736 111.665 13 111.378 13 111.079C13 110.78 12.9736 110.49 12.9209 110.209C12.915 110.174 12.9092 110.145 12.9033 110.121C12.71 109.184 12.2471 108.451 11.5146 107.924C10.7822 107.396 9.86523 107.133 8.76367 107.133C7.65625 107.133 6.73633 107.399 6.00391 107.933C5.27148 108.466 4.81152 109.204 4.62402 110.147L4.60645 110.227C4.55371 110.502 4.52734 110.786 4.52734 111.079C4.52734 111.372 4.55078 111.653 4.59766 111.923L4.61523 112.011C4.76172 112.679 5.07813 113.215 5.56445 113.619H0.361328V115.025H13V113.619H11.9629ZM8.76367 104.32C7.84961 104.32 7.14941 104.104 6.66309 103.67C6.17676 103.23 5.93359 102.601 5.93359 101.78C5.93359 100.96 6.17676 100.33 6.66309 99.8906C7.14941 99.457 7.84961 99.2402 8.76367 99.2402C9.67773 99.2402 10.3779 99.457 10.8643 99.8906C11.3506 100.33 11.5938 100.96 11.5938 101.78C11.5938 102.601 11.3506 103.23 10.8643 103.67C10.3779 104.104 9.67773 104.32 8.76367 104.32ZM8.76367 97.834C7.48047 97.834 6.45215 98.1914 5.67871 98.9062C4.91113 99.6211 4.52734 100.579 4.52734 101.78C4.52734 102.981 4.91113 103.939 5.67871 104.654C6.45215 105.369 7.48047 105.727 8.76367 105.727C10.0527 105.727 11.0811 105.369 11.8486 104.654C12.6162 103.939 13 102.981 13 101.78C13 100.579 12.6162 99.6211 11.8486 98.9062C11.0811 98.1914 10.0527 97.834 8.76367 97.834ZM8.55273 95.0215C7.70898 94.9922 7.06152 94.79 6.61035 94.415C6.15918 94.04 5.93359 93.5127 5.93359 92.833C5.93359 92.1299 6.17676 91.5908 6.66309 91.2158C7.15527 90.835 7.85547 90.6445 8.76367 90.6445H13V89.2471H8.76367C7.84961 89.2471 7.05566 89.417 6.38184 89.7568C5.70801 90.1025 5.21289 90.5859 4.89648 91.207C4.65625 91.6934 4.53613 92.2354 4.53613 92.833C4.53613 93.4365 4.65625 93.9785 4.89648 94.459C5.00781 94.6641 5.14844 94.8516 5.31836 95.0215H4.53613V96.4277H13V95.0215H8.55273ZM6.68066 80.168C7.43652 80.168 7.98438 80.3643 8.32422 80.7568C8.57617 81.0615 8.70215 81.4658 8.70215 81.9697C8.70215 82.4795 8.57617 82.8867 8.32422 83.1914C7.98438 83.584 7.43652 83.7803 6.68066 83.7803C5.9248 83.7803 5.37988 83.584 5.0459 83.1914C4.78809 82.8867 4.65918 82.4795 4.65918 81.9697C4.65918 81.4658 4.78809 81.0615 5.0459 80.7568C5.37988 80.3643 5.9248 80.168 6.68066 80.168ZM10.3984 78.7529L10.5215 78.8672C10.5918 78.9316 10.6563 78.9961 10.7148 79.0605C10.7969 79.1426 10.8643 79.2158 10.917 79.2803L10.1523 79.0869C9.6543 78.9521 9.08008 78.8613 8.42969 78.8145C8.17773 78.7969 7.91113 78.7822 7.62988 78.7705C7.4248 78.7646 7.19043 78.7617 6.92676 78.7617H6.68066C5.6377 78.7617 4.80566 79.0547 4.18457 79.6406C3.56348 80.2207 3.25293 80.9971 3.25293 81.9697C3.25293 82.9482 3.56348 83.7275 4.18457 84.3076C4.80566 84.8936 5.6377 85.1865 6.68066 85.1865C7.72363 85.1865 8.55566 84.8936 9.17676 84.3076C9.79785 83.7275 10.1084 82.9482 10.1084 81.9697C10.1084 81.5713 10.0498 81.1934 9.93262 80.8359L9.80078 80.4229L10.2051 80.5635C10.7324 80.7393 11.1074 80.9883 11.3301 81.3105C11.4883 81.5332 11.5762 81.8145 11.5938 82.1543V82.1719C11.5527 83.543 11.1104 84.5947 10.2666 85.3271C9.42285 86.0596 8.22754 86.4258 6.68066 86.4258C5.09863 86.4258 3.88281 86.042 3.0332 85.2744C2.18945 84.5127 1.76758 83.4111 1.76758 81.9697C1.76758 80.5342 2.18945 79.4355 3.0332 78.6738C3.88281 77.9062 5.09863 77.5225 6.68066 77.5225C8.28027 77.5225 9.50488 77.9209 10.3545 78.7178L10.3984 78.7529ZM0.361328 81.9697C0.361328 83.7803 0.926758 85.21 2.05762 86.2588C3.19434 87.3076 4.73535 87.832 6.68066 87.832C8.58496 87.832 10.0967 87.3428 11.2158 86.3643C12.3291 85.3857 12.9209 84.0293 12.9912 82.2949L13 82.2422L12.9912 82.1807L13 82.1279V81.9697C13 80.165 12.4346 78.7383 11.3037 77.6895C10.1729 76.6406 8.63184 76.1162 6.68066 76.1162C4.73535 76.1162 3.19434 76.6406 2.05762 77.6895C0.926758 78.7383 0.361328 80.165 0.361328 81.9697ZM5.9248 70.7549C5.9248 69.9463 6.16504 69.3223 6.64551 68.8828C7.12012 68.4492 7.80273 68.2266 8.69336 68.2148H8.8252C9.71582 68.2266 10.4014 68.4492 10.8818 68.8828C11.3564 69.3223 11.5938 69.9463 11.5938 70.7549C11.5938 71.5752 11.3506 72.2051 10.8643 72.6445C10.3721 73.0781 9.67188 73.2949 8.76367 73.2949C7.84961 73.2949 7.14941 73.0781 6.66309 72.6445C6.1709 72.2051 5.9248 71.5752 5.9248 70.7549ZM12.9209 71.625C12.9736 71.3438 13 71.0537 13 70.7549C13 70.4561 12.9736 70.1689 12.9209 69.8936L12.9033 69.7969C12.751 69.1465 12.4375 68.6191 11.9629 68.2148H13.4834C14.3975 68.2148 15.0977 68.458 15.584 68.9443C16.0703 69.4248 16.3135 70.1191 16.3135 71.0273C16.3135 71.5137 16.2432 71.9443 16.1025 72.3193C15.9092 72.8057 15.6045 73.1777 15.1885 73.4355L15.8125 74.6924C16.4277 74.3467 16.8994 73.8574 17.2275 73.2246C17.5557 72.5977 17.7197 71.8652 17.7197 71.0273C17.7197 69.75 17.3359 68.7275 16.5684 67.96C15.8008 67.1924 14.7725 66.8086 13.4834 66.8086H4.53613V68.2148H5.55566C5.0752 68.625 4.76172 69.1611 4.61523 69.8232L4.59766 69.9023C4.55078 70.1777 4.52734 70.4619 4.52734 70.7549C4.52734 71.0479 4.55078 71.3291 4.59766 71.5986L4.61523 71.6865C4.80273 72.6299 5.2627 73.3682 5.99512 73.9014C6.7334 74.4346 7.65625 74.7012 8.76367 74.7012C9.86523 74.7012 10.7822 74.4375 11.5146 73.9102C12.2471 73.3828 12.71 72.6504 12.9033 71.7129L12.9209 71.625ZM8.55273 63.5215C7.70898 63.4922 7.06152 63.29 6.61035 62.915C6.15918 62.54 5.93359 62.0127 5.93359 61.333C5.93359 60.6299 6.17676 60.0908 6.66309 59.7158C7.15527 59.335 7.85547 59.1445 8.76367 59.1445H13V57.7471H8.76367H8.55273C7.70313 57.7119 7.05566 57.5068 6.61035 57.1318C6.15918 56.7568 5.93359 56.2324 5.93359 55.5586C5.93359 54.8496 6.17676 54.3076 6.66309 53.9326C7.15527 53.5576 7.85547 53.3701 8.76367 53.3701H13V51.9639H8.76367C7.84961 51.9639 7.05566 52.1367 6.38184 52.4824C5.70801 52.8223 5.21289 53.3057 4.89648 53.9326C4.65625 54.4131 4.53613 54.9551 4.53613 55.5586C4.53613 56.1562 4.65625 56.6953 4.89648 57.1758C5.17188 57.6914 5.61133 58.084 6.21484 58.3535C5.62305 58.6934 5.18359 59.1445 4.89648 59.707C4.65625 60.1934 4.53613 60.7354 4.53613 61.333C4.53613 61.9365 4.65625 62.4785 4.89648 62.959C5.00781 63.1641 5.14844 63.3516 5.31836 63.5215H4.53613L4.53613 64.9277H13L13 63.5215H8.55273ZM8.76367 49.1426C7.84961 49.1426 7.14941 48.9258 6.66309 48.4922C6.17676 48.0527 5.93359 47.4229 5.93359 46.6025C5.93359 45.7822 6.17676 45.1553 6.66309 44.7217C7.14941 44.2822 7.84668 44.0625 8.75488 44.0625H8.77246C9.68066 44.0625 10.3779 44.2822 10.8643 44.7217C11.3506 45.1553 11.5938 45.7822 11.5938 46.6025C11.5938 47.4229 11.3506 48.0527 10.8643 48.4922C10.3779 48.9258 9.67773 49.1426 8.76367 49.1426ZM12.9209 47.4727C12.9736 47.1973 13 46.9072 13 46.6025C13 46.3037 12.9736 46.0166 12.9209 45.7412L12.9033 45.6445C12.7568 44.9941 12.4434 44.4668 11.9629 44.0625H13V42.6562H4.53613V44.0625H5.56445C5.07813 44.4727 4.76465 45.0088 4.62402 45.6709L4.60645 45.75C4.55371 46.0254 4.52734 46.3096 4.52734 46.6025C4.52734 46.8955 4.55078 47.1768 4.59766 47.4463L4.62402 47.5342C4.81152 48.4775 5.27148 49.2158 6.00391 49.749C6.73633 50.2822 7.65625 50.5488 8.76367 50.5488C9.86523 50.5488 10.7822 50.2852 11.5146 49.7578C12.2471 49.2305 12.71 48.498 12.9033 47.5605L12.9209 47.4727ZM13 40.6436V39.2461H4.52734V40.6436H13ZM2.97168 39.9492C2.97168 39.7266 2.89258 39.5391 2.73438 39.3867C2.58203 39.2285 2.39453 39.1494 2.17188 39.1494C1.95508 39.1494 1.76758 39.2285 1.60938 39.3867C1.45703 39.5391 1.38086 39.7266 1.38086 39.9492C1.38086 40.166 1.45703 40.3506 1.60938 40.5029C1.76758 40.6611 1.95508 40.7402 2.17188 40.7402C2.39453 40.7402 2.58203 40.6611 2.73438 40.5029C2.89258 40.3506 2.97168 40.166 2.97168 39.9492ZM0.370117 36.6797H13V35.2734H0.370117V36.6797ZM13 33.0762C13 33.293 12.9209 33.4775 12.7627 33.6299C12.6104 33.7881 12.4258 33.8672 12.209 33.8672C11.9863 33.8672 11.7988 33.7881 11.6465 33.6299C11.4883 33.4775 11.4092 33.293 11.4092 33.0762C11.4092 32.8535 11.4883 32.666 11.6465 32.5137C11.7988 32.3555 11.9863 32.2764 12.209 32.2764C12.4258 32.2764 12.6104 32.3555 12.7627 32.5137C12.9209 32.666 13 32.8535 13 33.0762ZM10.4863 24.7617C11.2246 25.1777 11.5938 25.8955 11.5938 26.915C11.5938 27.7354 11.3506 28.3652 10.8643 28.8047C10.3779 29.2383 9.67773 29.4551 8.76367 29.4551C7.84961 29.4551 7.14941 29.2383 6.66309 28.8047C6.17676 28.3652 5.93359 27.7354 5.93359 26.915C5.93359 25.9014 6.29688 25.1865 7.02344 24.7705L6.43457 23.4961C5.8252 23.8184 5.35645 24.2754 5.02832 24.8672C4.69434 25.4648 4.52734 26.1475 4.52734 26.915C4.52734 28.1162 4.91113 29.0742 5.67871 29.7891C6.45215 30.5039 7.48047 30.8613 8.76367 30.8613C10.0527 30.8613 11.0811 30.5039 11.8486 29.7891C12.6162 29.0742 13 28.1162 13 26.915C13 26.1416 12.833 25.4561 12.499 24.8584C12.165 24.2607 11.6904 23.8008 11.0752 23.4785L10.4863 24.7617ZM8.76367 21.6328C7.84961 21.6328 7.14941 21.416 6.66309 20.9824C6.17676 20.543 5.93359 19.9131 5.93359 19.0928C5.93359 18.2725 6.17676 17.6426 6.66309 17.2031C7.14941 16.7695 7.84961 16.5527 8.76367 16.5527C9.67773 16.5527 10.3779 16.7695 10.8643 17.2031C11.3506 17.6426 11.5938 18.2725 11.5938 19.0928C11.5938 19.9131 11.3506 20.543 10.8643 20.9824C10.3779 21.416 9.67773 21.6328 8.76367 21.6328ZM8.76367 15.1465C7.48047 15.1465 6.45215 15.5039 5.67871 16.2188C4.91113 16.9336 4.52734 17.8916 4.52734 19.0928C4.52734 20.2939 4.91113 21.252 5.67871 21.9668C6.45215 22.6816 7.48047 23.0391 8.76367 23.0391C10.0527 23.0391 11.0811 22.6816 11.8486 21.9668C12.6162 21.252 13 20.2939 13 19.0928C13 17.8916 12.6162 16.9336 11.8486 16.2188C11.0811 15.5039 10.0527 15.1465 8.76367 15.1465ZM8.55273 12.334C7.70898 12.3047 7.06152 12.1025 6.61035 11.7275C6.15918 11.3525 5.93359 10.8252 5.93359 10.1455C5.93359 9.44238 6.17676 8.90332 6.66309 8.52832C7.15527 8.14746 7.85547 7.95703 8.76367 7.95703H13V6.55957H8.76367H8.55273C7.70313 6.52441 7.05566 6.31934 6.61035 5.94434C6.15918 5.56934 5.93359 5.04492 5.93359 4.37109C5.93359 3.66211 6.17676 3.12012 6.66309 2.74512C7.15527 2.37012 7.85547 2.18262 8.76367 2.18262H13V0.776367H8.76367C7.84961 0.776367 7.05566 0.949219 6.38184 1.29492C5.70801 1.63477 5.21289 2.11816 4.89648 2.74512C4.65625 3.22559 4.53613 3.76758 4.53613 4.37109C4.53613 4.96875 4.65625 5.50781 4.89648 5.98828C5.17188 6.50391 5.61133 6.89648 6.21484 7.16602C5.62305 7.50586 5.18359 7.95703 4.89648 8.51953C4.65625 9.00586 4.53613 9.54785 4.53613 10.1455C4.53613 10.749 4.65625 11.291 4.89648 11.7715C5.00781 11.9766 5.14844 12.1641 5.31836 12.334H4.53613V13.7402H13V12.334H8.55273Z" fill="black"/>
</svg>
